<svg id="Layer_1" data-name="Layer 1" xmlns="http://www.w3.org/2000/svg" viewBox="0 0 690.15 372.98"><title>Signature</title><path d="M260.59,305.24c3.63-.44,5.52-2.56,7.4-4.21,21.06-18.39,40.92-38,58.52-59.78,1.16-1.42,4.58-3.24,2.39-5-1.94-1.59-4,1.56-5.28,3.26a10.48,10.48,0,0,1-7.82,4.62c-3,.37-4.71-.86-6.05-3.2s-.72-4.12.89-5.91c8.22-9.16,16.16-18.57,25.45-26.71,9.07-7.95,18-16.11,27.62-24.81-4.17,0-7.53-.15-10.88,0-15.9.83-31.62,3.53-47.53,4.4-10.5.57-21-1.63-31.43,0-.86.14-1.82-.07-2-1-.08-.46.6-1.06,1-1.59.63-.92,3.23-1,1.74-2.71-1.3-1.53-2.67.17-3.86,1-10.39,7-19.41,15.65-28.87,23.78-4.51,3.87-9.2,7.55-14,11.11-2.74,2.05-4.57,4.78-6.62,7.39-9.77,12.4-20.1,24.4-29.25,37.24-11,15.45-20.53,31.81-23.64,51-1,6.22-4.12,12-4.45,18.35a40.1,40.1,0,0,0,.24,6.48c.3,2.59,1.08,4.94,4.32,5.23,1.17.11,2.49.32,2.37,1.93a3.11,3.11,0,0,1-2.69,3.16c-3.21.47-5.87-.28-7.59-3.42-2.82-5.13-2.91-10.85-2-16.09,3.12-17.52,7.51-34.68,16.35-50.45,6.77-12.08,14.09-23.71,22.91-34.39a28.3,28.3,0,0,0,1.8-2.83,6.19,6.19,0,0,0-6.35,2.37c-4.18,6.26-11.06,9-16.53,13.51-12.6,10.33-24.12,21.91-37.36,31.47a43.62,43.62,0,0,1-9.23,4.88c-3.11,1.26-5.33.41-7.39-2.14s-1.16-4.61.19-6.86c6.53-10.85,15.17-20.19,22.22-30.66,2.36-3.51,6-6.09,8.12-11.11-5.43,3-8.53,7.17-11.63,10.83-7.64,9-15.71,17.52-24.1,25.74Q98,299.35,77.21,317.3c-9.45,8.13-19,16.16-28.33,24.39-3.24,2.84-6.09,6.12-9.05,9.27-2.6,2.77-4.84,5.92-8.75,7.13-1.82.57-2.8,2.22-4,3.59a37.86,37.86,0,0,1-16.47,10.9,8.12,8.12,0,0,1-10.53-7.4c-.39-5.53,1.42-10.45,4.05-15.2,4.63-8.39,11-15.5,17.21-22.62C33.88,313,46,298,60,285c16.32-15.07,30.55-32.44,49.26-45,4.75-3.18,8.52-7.73,15.12-8.7-6.27,9.9-15.62,16.08-23.73,23.53-7.21,6.63-14.24,13.47-20.86,20.74C73,283.11,65.05,289.55,58.16,297,45.82,310.27,34,324,21.79,337.44a55.91,55.91,0,0,0-10.35,15.14c-.68,1.55-1.36,3-1.13,4.73.41,3.29,1.33,5,5.11,3s7.5-3.79,10.49-6.65c24.86-23.88,52.49-44.59,77.66-68.07,11.75-11,23-22.47,33.68-34.59,12.4-14.1,25.57-27.51,38.11-41.5,10.67-11.92,22.12-23,33.67-34.07,3.58-3.42,3.37-4.14-.16-7.66,4.91.18,9-1,12.33-4.26a2.6,2.6,0,0,1,3.65-.16c1.14,1,.5,2.05.24,3.19-1.53,6.55-6.15,11.2-10.8,15.25-5.91,5.15-10.48,11.32-15.57,17.1-8.56,9.72-17.34,19.31-25.1,29.65-5.26,7-11.11,13.55-16.18,20.73-6.31,8.92-14,16.83-20.23,25.82-2,2.88-4.19,5.55-4.89,10,14.25-11.3,28.83-21,42.26-32.22,10.95-9.17,22.53-17.6,33.79-26.41,5.47-4.27,10.92-8.47,15.3-14.08,10.4-13.31,22.26-25.38,33.24-38.19,11.47-13.37,23.89-25.87,36.28-38.3,11.42-11.46,22.61-23.2,34.49-34.27,10.75-10,21.4-20.32,31.51-31.1C376.77,51.8,397,36.1,418,21.43a18.08,18.08,0,0,1,7.3-3.09c1.75-.3,3.88-.73,5,1.14,1.26,2,.15,3.75-1.34,5.31q-9.28,9.72-18.48,19.54c-14.95,16-31.5,30.5-46.36,46.57-9.8,10.61-20.15,20.68-29.81,31.42-7.1,7.88-15.45,14.62-22.73,22.35-10.38,11-21.79,20.89-33,31.05a33.53,33.53,0,0,0-3.09,3.74c19.25-.51,38.3-.69,57.31-1.62,12.93-.63,25.8-2.3,38.7-3.52a8.49,8.49,0,0,0,4.8-2.41q22.39-19.62,45.69-38.15a15.77,15.77,0,0,1,3.88-2.19c2.91-1.17,4.76.54,6.26,2.71,1.82,2.62-1.06,2.95-2.15,4.06-6.84,7-15,12.43-21.72,19.65-3.42,3.71-4.72,8.69-9.29,12.13a6.27,6.27,0,0,0,7-1.48c10.51-9.49,20.52-19.45,30.2-29.81s19.23-21.34,29.12-31.77q12.44-13.12,24.31-26.91c3.38-3.93,7.6-7.73,11.45-11.47,5.58-5.43,11-11.16,16.52-16.71,6.53-6.54,12.69-13.49,20.25-19,3.72-2.72,6.92-6.18,10.18-9.48,7.25-7.34,16.06-12.93,23-20.69C573.47.09,577.39.24,580.78,0c2-.14,2.83,2.22,3.56,3.74s-1.12,2.13-2.1,3c-12.51,10.46-25.55,20.24-37.79,31-13.27,11.71-27.07,22.78-39.79,35.12-14.27,13.85-28.37,27.8-41.31,42.93-7.54,8.82-15.79,17-23.66,25.58-2.47,2.68-4.78,5.5-7.09,8.32-5.45,6.67-13,11.19-18.53,18.43,3.41,1.09,6.69.54,9.82.19,15.84-1.75,31.63-4.15,47.5-5.52,15.24-1.32,30.39-3.46,45.67-4.55,13.58-1,27.15-2.1,40.75-2.82,2.16-.12,3.16-1.24,4.4-2.68,12.36-14.4,23.3-29.9,35-44.84C605.36,97.41,613.06,86.59,621,76c5.17-6.9,8.16-15.18,13.67-21.92a5.58,5.58,0,0,0,0-6.6c-1.46-1.95-4-1.07-6-.07s-3.88,2.36-6.84,4.2c1.77-4.81,5.14-6.73,8.23-8.31,2.57-1.31,5.8.28,7.8,2s1.73,4.75.35,7.39c-6.61,12.63-13.6,25-22.18,36.46-11.24,15-21.94,30.44-33.25,45.39-4.78,6.32-9.91,12.36-14.92,19.74,32.28-.35,63.63-3,95.13-4.71a8.63,8.63,0,0,1-5.65,3.52c-10.21,1.18-20.43,2.75-30.68,3.09-20.28.69-40.33,4.23-60.62,4.52A6.68,6.68,0,0,0,560,165c-3.12,6.83-8.28,12.23-12.29,18.43-7.66,11.83-15.9,23.28-23.85,34.93-5.11,7.5-10.24,15-15.78,22.15s-10.91,14.2-16.5,21.19c-9.75,12.18-18.77,24.93-28.24,37.34-3,4-6.42,7.75-11.08,9.88-4.18,1.91-6.35.58-6.81-4a32.41,32.41,0,0,1,2.42-14.66c.9-2.37,1.1-4.76,1.7-8.53-5.29,6.36-11.29,9.82-16.8,13.88-2.56,1.9-5.41,5.44-9.15,2.72-2.51-1.83-1.22-8.51,1.57-11.8,1.62-1.91,4.06-3.4,4.17-7.23-5.48,3.66-8.2,8.85-11.79,13.16a18.27,18.27,0,0,1-4.69,4.28c-1.65,1-3.4,2.89-5.35,1.16-1.72-1.52-.77-3.72-.28-5.65a19.69,19.69,0,0,1,3.65-7,9.94,9.94,0,0,0,2.27-4.39c1-6.53,3.06-8.77,9.32-9.91,1.93-.36,3.24-1.59,4.76-2.61,2.64-1.79,5.35-3.29,8.81-2.75,5.93.93,7.53,3.21,5.61,8.83-.53,1.56-1,3,.33,4.07s2.43.08,3.64-.6a34.08,34.08,0,0,0,8.11-5.72c2-2.08,4.15-2.54,6.66-.8,2.73,1.88.24,3.31-.19,5-1.61,6.37-5.13,12.23-5.32,19.37,3.36-.2,5-2.55,6.38-4.51,15-21.6,33.12-40.75,48-62.41,6.35-9.23,13.68-17.83,19.52-27.36,7.57-12.35,16.58-23.68,24.4-35.83.59-.91,1.75-1.84,1-3.1s-2.1-.75-3.2-.66c-32.3,2.65-64.55,5.8-96.71,9.87-12.69,1.6-25.35,3.44-38.06,4.85a46.25,46.25,0,0,0-26,11.49c-7.55,6.56-16.19,11.86-23.82,18.33-7.1,6-14.1,12.31-19.68,19.88-4.55,6.14-10.55,10.92-15,17.28-5.19,7.44-11.43,14.2-17.61,20.88-6.84,7.39-13.74,14.69-21.32,21.41-7.77,6.89-16.52,12.84-23.36,20.43-4,4.47-9.36,7.38-12.86,12.42-2.08,3-4.65,6.74-9.53,6.16-1.28-.15-1.71.94-1.9,1.92-.61,3.3-2.9,5.11-5.61,6.59-2.13,1.17-4.06,3.12-6.85,1.53s-2.34-4-1.67-7c-3.8,1.26-6,3.82-8.82,5.48-2.55,1.52-5.27,3.54-8.19,1.9-2.3-1.29-1.73-7.58.45-10.51C224.8,310.93,237,299,250.22,288a19.41,19.41,0,0,0,3.49-4.12c1.87-2.69,6.55-2.46,10.23.55,1.65,1.36,2.37,1.58,3.9-.18,6.19-7.13,12.57-14.09,18.88-21.11a4.39,4.39,0,0,1,1.06-1.05c2.9-1.39,5.57-5.57,9.11-1.86s-.12,6.44-2.53,8.7c-10.45,9.77-18.9,21.46-29.81,30.79C263.08,301,262.21,303,260.59,305.24Zm-11-113.2c15.52-7,161.51-150.23,165-161.36C353.87,79.52,301.88,135.93,249.58,192Zm70.15,41.21c1.21-.14,1.77-.05,2.12-.27,18.5-12.14,36.1-25.32,50.77-42.11,2.14-2.45,3.06-6,6.37-7.43.86-.39,2-1.06,1.25-2.23s-1.72-.47-2.67-.11a37.07,37.07,0,0,0-10.48,6.44c-8.24,7-16.3,14.13-24.09,21.58S326.33,223.35,319.73,233.25Zm64.8-61.92,1.07,1.31c8.13-1,10.42-9,15.95-13.16l-1.12-1.35Zm-4.42,19.23c1.79-1.4,3.62-2.76,5.36-4.21s3.63-2.39,4.08-4.86C385.11,183.14,381.72,185.94,380.11,190.56Zm55.79,93.8c-.2-1.27-1.06-1.29-1.87-1.24-3,.16-3.16,2.9-4.16,4.79-.36.67.63,1.3,1.19,1A13.85,13.85,0,0,0,435.9,284.36Z"/><path d="M690.15,265.06a13.77,13.77,0,0,1-8.5,4.93c-22,3.83-43.35,10.74-65.58,13.5-13.37,1.66-27,4.13-40.1,1.33-6.6-1.41-13.51.51-20-3.07-3.11-1.71-7.38,1.86-11.1,3.14-1.56.53-3,1.32-4.57,1.92-2.91,1.15-5.29,1-6-2.7-.61-3-1.91-2.94-4.13-1.27-2.48,1.89-4.62,4.35-7.86,5.15-1.89.47-3.72.62-5.06-1a4.28,4.28,0,0,1-.29-4.73,39.3,39.3,0,0,1,10.83-13.52c.8-.67,1.84-1.23,2.75-.76,4.92,2.49,8.15-1.27,11.62-3.32,4.17-2.47,8.74-1.18,10.19,3.47.67,2.12,8.59,7.55,10.44,6.66,4.2-2,8.53-.66,12.11.35,12.31,3.47,24.66,3,37,1.79,18-1.71,35.73-5.49,53.6-8.07C673.68,267.68,681.77,265.65,690.15,265.06Z"/><path d="M364.25,298.23A69.57,69.57,0,0,1,375.59,272c11.2-15.7,22.49-31.34,35.11-45.92,9.9-11.44,20.22-22.52,29.93-34.15a19.77,19.77,0,0,1,6.75-5.05c2.19-1,5.11-1.49,3.45-5.18-.43-.94.57-1.5,1.44-1.54,1.34-.07,2.84,0,3.65,1.19a3.62,3.62,0,0,1-.1,4.24c-1.86,2.54-3.87,5-5.95,7.37-6.42,7.38-12.14,15.58-19.52,21.85-12.76,10.86-22.69,24.1-32.86,37-10,12.69-20.44,25.32-26.27,40.77-.93,2.45-2.11,5.05,1.41,6.81,2.63,1.32,1.4,3.32.36,5.08-1.23,2.07-3,2-4.67.75C366,303.54,363.92,301.58,364.25,298.23Z"/><path d="M127.5,236.07c-.62,0-1.44-.3-1.29-1,.64-3.16.49-6.84,2.88-9.14a4.53,4.53,0,0,1,7,.5c2,2.39,1.51,4.25-.94,6.31A16.75,16.75,0,0,1,127.5,236.07Z"/></svg>