<?xml version="1.0" standalone="no"?>
<!DOCTYPE svg PUBLIC "-//W3C//DTD SVG 20010904//EN"
 "http://www.w3.org/TR/2001/REC-SVG-20010904/DTD/svg10.dtd">
<svg version="1.0" xmlns="http://www.w3.org/2000/svg"
 width="16.000000pt" height="16.000000pt" viewBox="0 0 16.000000 16.000000"
 preserveAspectRatio="xMidYMid meet">
<metadata>
Created by potrace 1.11, written by Peter Selinger 2001-2013
</metadata>
<g transform="translate(0.000000,16.000000) scale(0.006250,-0.006250)"
fill="#000000" stroke="none">
<path d="M929 2278 c-7 -13 -15 -25 -19 -28 -13 -9 -94 -123 -114 -161 -41
-78 -71 -113 -105 -121 -30 -8 -66 -27 -126 -66 -11 -6 -27 -15 -35 -19 -8 -4
-19 -11 -25 -15 -49 -40 -63 -52 -85 -72 -53 -48 -140 -157 -140 -175 0 -5 -3
-11 -7 -13 -15 -6 -55 -100 -83 -194 -21 -70 -15 -77 115 -125 28 -11 64 -25
80 -33 17 -7 49 -22 73 -32 23 -10 42 -21 42 -26 0 -4 6 -8 14 -8 11 0 26 -20
26 -35 0 -2 -30 7 -67 22 -199 75 -213 75 -213 -3 0 -107 157 -293 317 -374
37 -19 70 -38 73 -42 3 -3 19 -10 35 -14 17 -4 35 -10 40 -14 16 -11 133 -38
215 -50 41 -6 134 -10 207 -9 118 2 135 0 168 -19 20 -12 40 -22 46 -22 5 0 9
-4 9 -10 0 -5 5 -10 11 -10 6 0 25 -6 42 -14 69 -32 267 -68 267 -50 0 12 -23
76 -33 91 -4 6 -12 31 -17 55 -5 24 -12 54 -15 68 -5 22 0 28 38 49 43 23 46
24 93 9 146 -47 201 -46 177 4 -30 64 -43 98 -43 115 0 11 24 40 55 67 47 40
60 47 83 41 64 -16 199 -98 341 -208 34 -27 67 -45 72 -40 4 4 4 26 -2 48 -37
151 -39 574 -4 830 18 133 18 125 0 125 -8 0 -15 -4 -15 -10 0 -31 -229 -220
-266 -220 -7 0 -14 -3 -16 -7 -1 -5 -25 -16 -52 -25 -36 -12 -55 -14 -68 -7
-24 13 -18 33 10 37 l21 3 -20 47 c-60 138 -88 180 -185 277 -134 132 -333
246 -539 309 -33 10 -69 22 -80 27 -18 7 -48 14 -160 39 -22 5 -53 13 -68 19
-41 16 -55 14 -68 -11z m320 -418 c168 -18 340 -78 466 -163 167 -112 280
-259 288 -371 1 -24 10 -50 20 -60 9 -10 17 -20 17 -24 0 -15 -43 -76 -73
-104 -88 -81 -390 -255 -502 -288 -132 -39 -304 -59 -364 -42 -20 6 -67 16
-106 22 -129 20 -169 28 -255 53 -118 35 -235 90 -274 130 -9 9 -22 20 -29 24
-24 16 -87 94 -87 108 0 21 69 20 131 -2 38 -14 53 -15 67 -7 20 14 21 70 0
89 -7 7 -67 41 -133 74 -138 71 -168 97 -156 138 15 51 101 217 121 233 4 3
14 19 24 35 22 39 165 110 249 124 32 6 63 14 69 18 10 5 106 11 393 21 22 1
82 -3 134 -8z"/>
<path d="M930 1823 c0 -5 11 -21 25 -38 39 -47 38 -47 68 -108 42 -88 57 -141
70 -262 18 -165 -4 -314 -62 -418 -34 -60 -6 -42 33 20 19 32 53 76 76 98 23
22 55 53 71 69 50 48 72 106 65 172 -7 68 -43 148 -85 189 -99 97 -125 127
-173 202 -32 50 -60 82 -70 83 -10 0 -18 -3 -18 -7z"/>
<path d="M635 1638 c-95 -55 -99 -170 -7 -214 43 -20 83 -11 120 28 51 51 51
115 0 167 -33 33 -76 40 -113 19z m45 -48 c0 -5 -4 -10 -10 -10 -5 0 -10 5
-10 10 0 6 5 10 10 10 6 0 10 -4 10 -10z"/>
</g>
</svg>
